<svg width="24" height="24" viewBox="0 0 24 24" fill="none" xmlns="http://www.w3.org/2000/svg">
<path fill-rule="evenodd" clip-rule="evenodd" d="M20 7C20 6.44772 19.5523 6 19 6H5C4.44772 6 4 6.44772 4 7C4 7.55228 4.44772 8 5 8H19C19.5523 8 20 7.55228 20 7Z" fill="#9758EF"/>
<path fill-rule="evenodd" clip-rule="evenodd" d="M20 12C20 11.4477 19.5523 11 19 11H9C8.44772 11 8 11.4477 8 12C8 12.5523 8.44772 13 9 13H19C19.5523 13 20 12.5523 20 12Z" fill="#9758EF"/>
<path fill-rule="evenodd" clip-rule="evenodd" d="M20 17C20 16.4477 19.5523 16 19 16H13C12.4477 16 12 16.4477 12 17C12 17.5523 12.4477 18 13 18H19C19.5523 18 20 17.5523 20 17Z" fill="#9758EF"/>
</svg>
